<?xml version="1.0" encoding="UTF-8" standalone="no"?>
<svg width="60px" height="60px" viewBox="0 0 60 60" version="1.1" xmlns="http://www.w3.org/2000/svg" xmlns:xlink="http://www.w3.org/1999/xlink">
    <!-- Generator: Sketch 39.1 (31720) - http://www.bohemiancoding.com/sketch -->
    <title>like</title>
    <desc>Created with Sketch.</desc>
    <defs></defs>
    <g id="List" stroke="none" stroke-width="1" fill="none" fill-rule="evenodd">
        <g id="like" fill="#4990E2">
            <path d="M11.9730422,24.3178093 L6,24.3178093 L6,53.1808249 L11.9730422,53.1808249 C13.6238991,53.1808249 14.963069,51.8889933 14.963069,50.2942154 L14.963069,27.208729 C14.963069,25.6139511 13.6238991,24.3178093 11.9730422,24.3178093 L11.9730422,24.3178093 Z M10.4815345,30.0953384 C9.65228172,30.0953384 8.98811461,29.453117 8.98811461,28.6520337 C8.98811461,27.8583392 9.65228172,27.208729 10.4815345,27.208729 C11.3031386,27.208729 11.9755918,27.8558763 11.9755918,28.6520337 C11.9730422,29.453117 11.3031386,30.0953384 10.4815345,30.0953384 L10.4815345,30.0953384 Z M53.7919866,30.0928754 L50.807059,50.2942154 C50.480712,52.1876293 49.4698012,53.1808249 47.8189444,53.1808249 L29.8972681,53.1808249 C26.9097909,53.1808249 23.9242259,50.2942154 20.9367487,50.2942154 L17.9511836,50.2942154 L17.9511836,30.0953384 C17.9511836,27.208729 20.9392982,25.9920182 20.9392982,25.9920182 C26.20738,23.7667181 29.9023673,18.6991423 29.9023673,12.782455 L29.9023673,9.89584559 C29.9023673,8.30106777 31.2345259,7 32.8853827,7 L35.8703103,7 C37.5237168,7 38.8654363,8.30106777 38.8654363,9.89584559 L38.8654363,27.203803 L50.807059,27.203803 C52.4579158,27.203803 54.0265485,28.4260555 53.7919866,30.0928754 L53.7919866,30.0928754 Z" id="Page-1"></path>
        </g>
    </g>
</svg>